<svg xmlns="http://www.w3.org/2000/svg" xmlns:xlink="http://www.w3.org/1999/xlink" width="500" zoomAndPan="magnify" viewBox="0 0 375 374.999991" height="500" preserveAspectRatio="xMidYMid meet" version="1.0"><defs><clipPath id="5a2d326ced"><path d="M 73.785156 73.789062 L 301.207031 73.789062 L 301.207031 301.210938 L 73.785156 301.210938 Z M 73.785156 73.789062 " clip-rule="nonzero"/></clipPath><clipPath id="7dad137879"><path d="M 301.207031 79.789062 L 301.207031 295.210938 C 301.207031 298.527344 298.519531 301.210938 295.207031 301.210938 L 79.78125 301.210938 C 76.46875 301.210938 73.785156 298.527344 73.785156 295.210938 L 73.785156 79.789062 C 73.785156 76.472656 76.46875 73.789062 79.78125 73.789062 L 295.207031 73.789062 C 298.519531 73.789062 301.207031 76.472656 301.207031 79.789062 Z M 301.207031 79.789062 " clip-rule="nonzero"/></clipPath><clipPath id="46fdb7a6e2"><path d="M 0.785156 0.789062 L 228.207031 0.789062 L 228.207031 228.210938 L 0.785156 228.210938 Z M 0.785156 0.789062 " clip-rule="nonzero"/></clipPath><clipPath id="6c9a3342d3"><path d="M 228.207031 6.789062 L 228.207031 222.210938 C 228.207031 225.527344 225.519531 228.210938 222.207031 228.210938 L 6.78125 228.210938 C 3.46875 228.210938 0.785156 225.527344 0.785156 222.210938 L 0.785156 6.789062 C 0.785156 3.472656 3.46875 0.789062 6.78125 0.789062 L 222.207031 0.789062 C 225.519531 0.789062 228.207031 3.472656 228.207031 6.789062 Z M 228.207031 6.789062 " clip-rule="nonzero"/></clipPath><clipPath id="3f3680b2f1"><rect x="0" width="229" y="0" height="229"/></clipPath><clipPath id="30c8435a33"><path d="M 82.742188 82.8125 L 293.125 82.8125 L 293.125 293.195312 L 82.742188 293.195312 Z M 82.742188 82.8125 " clip-rule="nonzero"/></clipPath><clipPath id="a1cd8c9e21"><path d="M 293.125 88.8125 L 293.125 287.195312 C 293.125 290.507812 290.441406 293.195312 287.125 293.195312 L 88.742188 293.195312 C 85.429688 293.195312 82.742188 290.507812 82.742188 287.195312 L 82.742188 88.8125 C 82.742188 85.496094 85.429688 82.8125 88.742188 82.8125 L 287.125 82.8125 C 290.441406 82.8125 293.125 85.496094 293.125 88.8125 Z M 293.125 88.8125 " clip-rule="nonzero"/></clipPath><clipPath id="f9bd483d8a"><path d="M 0.742188 0.8125 L 211.125 0.8125 L 211.125 211.195312 L 0.742188 211.195312 Z M 0.742188 0.8125 " clip-rule="nonzero"/></clipPath><clipPath id="71b756ff1a"><path d="M 211.125 6.8125 L 211.125 205.195312 C 211.125 208.507812 208.441406 211.195312 205.125 211.195312 L 6.742188 211.195312 C 3.429688 211.195312 0.742188 208.507812 0.742188 205.195312 L 0.742188 6.8125 C 0.742188 3.496094 3.429688 0.8125 6.742188 0.8125 L 205.125 0.8125 C 208.441406 0.8125 211.125 3.496094 211.125 6.8125 Z M 211.125 6.8125 " clip-rule="nonzero"/></clipPath><clipPath id="be33432689"><rect x="0" width="212" y="0" height="212"/></clipPath><clipPath id="23219a4ce3"><path d="M 91.667969 92.171875 L 283.324219 92.171875 L 283.324219 283.832031 L 91.667969 283.832031 Z M 91.667969 92.171875 " clip-rule="nonzero"/></clipPath><clipPath id="b5e9d20601"><path d="M 283.324219 98.171875 L 283.324219 277.832031 C 283.324219 279.421875 282.691406 280.949219 281.566406 282.074219 C 280.441406 283.199219 278.917969 283.832031 277.324219 283.832031 L 97.667969 283.832031 C 96.074219 283.832031 94.550781 283.199219 93.425781 282.074219 C 92.300781 280.949219 91.667969 279.421875 91.667969 277.832031 L 91.667969 98.171875 C 91.667969 96.582031 92.300781 95.054688 93.425781 93.929688 C 94.550781 92.804688 96.074219 92.171875 97.667969 92.171875 L 277.324219 92.171875 C 278.917969 92.171875 280.441406 92.804688 281.566406 93.929688 C 282.691406 95.054688 283.324219 96.582031 283.324219 98.171875 Z M 283.324219 98.171875 " clip-rule="nonzero"/></clipPath><clipPath id="496a45d8c0"><path d="M 0.667969 0.171875 L 192.324219 0.171875 L 192.324219 191.832031 L 0.667969 191.832031 Z M 0.667969 0.171875 " clip-rule="nonzero"/></clipPath><clipPath id="8d9790aaf1"><path d="M 192.324219 6.171875 L 192.324219 185.832031 C 192.324219 187.421875 191.691406 188.949219 190.566406 190.074219 C 189.441406 191.199219 187.917969 191.832031 186.324219 191.832031 L 6.667969 191.832031 C 5.074219 191.832031 3.550781 191.199219 2.425781 190.074219 C 1.300781 188.949219 0.667969 187.421875 0.667969 185.832031 L 0.667969 6.171875 C 0.667969 4.582031 1.300781 3.054688 2.425781 1.929688 C 3.550781 0.804688 5.074219 0.171875 6.667969 0.171875 L 186.324219 0.171875 C 187.917969 0.171875 189.441406 0.804688 190.566406 1.929688 C 191.691406 3.054688 192.324219 4.582031 192.324219 6.171875 Z M 192.324219 6.171875 " clip-rule="nonzero"/></clipPath><clipPath id="1eb7ede678"><rect x="0" width="193" y="0" height="192"/></clipPath><clipPath id="10abd458c9"><path d="M 11.59375 11.59375 L 147.644531 11.59375 L 147.644531 147.644531 L 11.59375 147.644531 Z M 11.59375 11.59375 " clip-rule="nonzero"/></clipPath><clipPath id="76158c2e00"><path d="M 147.644531 34.09375 L 147.644531 125.144531 C 147.644531 137.570312 137.570312 147.644531 125.144531 147.644531 L 34.09375 147.644531 C 21.667969 147.644531 11.59375 137.570312 11.59375 125.144531 L 11.59375 34.09375 C 11.59375 21.667969 21.667969 11.59375 34.09375 11.59375 L 125.144531 11.59375 C 137.570312 11.59375 147.644531 21.667969 147.644531 34.09375 Z M 147.644531 34.09375 " clip-rule="nonzero"/></clipPath><clipPath id="696f4f06ae"><path d="M 0.59375 0.59375 L 136.644531 0.59375 L 136.644531 136.644531 L 0.59375 136.644531 Z M 0.59375 0.59375 " clip-rule="nonzero"/></clipPath><clipPath id="5cf5872694"><path d="M 136.644531 23.09375 L 136.644531 114.144531 C 136.644531 126.570312 126.570312 136.644531 114.144531 136.644531 L 23.09375 136.644531 C 10.667969 136.644531 0.59375 126.570312 0.59375 114.144531 L 0.59375 23.09375 C 0.59375 10.667969 10.667969 0.59375 23.09375 0.59375 L 114.144531 0.59375 C 126.570312 0.59375 136.644531 10.667969 136.644531 23.09375 Z M 136.644531 23.09375 " clip-rule="nonzero"/></clipPath><clipPath id="e447bc0d26"><rect x="0" width="137" y="0" height="137"/></clipPath><clipPath id="91a2361643"><path d="M 17.679688 17.761719 L 141.160156 17.761719 L 141.160156 141.242188 L 17.679688 141.242188 Z M 17.679688 17.761719 " clip-rule="nonzero"/></clipPath><clipPath id="7d380dc503"><path d="M 141.160156 34.261719 L 141.160156 124.742188 C 141.160156 129.117188 139.421875 133.316406 136.328125 136.410156 C 133.230469 139.503906 129.035156 141.242188 124.660156 141.242188 L 34.179688 141.242188 C 29.804688 141.242188 25.605469 139.503906 22.511719 136.410156 C 19.417969 133.316406 17.679688 129.117188 17.679688 124.742188 L 17.679688 34.261719 C 17.679688 29.886719 19.417969 25.691406 22.511719 22.59375 C 25.605469 19.5 29.804688 17.761719 34.179688 17.761719 L 124.660156 17.761719 C 129.035156 17.761719 133.230469 19.5 136.328125 22.59375 C 139.421875 25.691406 141.160156 29.886719 141.160156 34.261719 Z M 141.160156 34.261719 " clip-rule="nonzero"/></clipPath><clipPath id="5538b55858"><path d="M 0.679688 0.761719 L 124.160156 0.761719 L 124.160156 124.242188 L 0.679688 124.242188 Z M 0.679688 0.761719 " clip-rule="nonzero"/></clipPath><clipPath id="190b3d4929"><path d="M 124.160156 17.261719 L 124.160156 107.742188 C 124.160156 112.117188 122.421875 116.316406 119.328125 119.410156 C 116.230469 122.503906 112.035156 124.242188 107.660156 124.242188 L 17.179688 124.242188 C 12.804688 124.242188 8.605469 122.503906 5.511719 119.410156 C 2.417969 116.316406 0.679688 112.117188 0.679688 107.742188 L 0.679688 17.261719 C 0.679688 12.886719 2.417969 8.691406 5.511719 5.59375 C 8.605469 2.5 12.804688 0.761719 17.179688 0.761719 L 107.660156 0.761719 C 112.035156 0.761719 116.230469 2.5 119.328125 5.59375 C 122.421875 8.691406 124.160156 12.886719 124.160156 17.261719 Z M 124.160156 17.261719 " clip-rule="nonzero"/></clipPath><clipPath id="0068beeb20"><rect x="0" width="125" y="0" height="125"/></clipPath><clipPath id="2cd5d70ac8"><path d="M 24.804688 24.378906 L 134.035156 24.378906 L 134.035156 134 L 24.804688 134 Z M 24.804688 24.378906 " clip-rule="nonzero"/></clipPath><clipPath id="f1e11745f7"><path d="M 134.035156 34.878906 L 134.035156 123.253906 C 134.035156 126.035156 132.929688 128.707031 130.960938 130.675781 C 128.992188 132.644531 126.320312 133.75 123.535156 133.75 L 35.304688 133.75 C 32.519531 133.75 29.847656 132.644531 27.878906 130.675781 C 25.910156 128.707031 24.804688 126.035156 24.804688 123.253906 L 24.804688 34.878906 C 24.804688 32.09375 25.910156 29.425781 27.878906 27.457031 C 29.847656 25.488281 32.519531 24.378906 35.304688 24.378906 L 123.535156 24.378906 C 126.320312 24.378906 128.992188 25.488281 130.960938 27.457031 C 132.929688 29.425781 134.035156 32.09375 134.035156 34.878906 Z M 134.035156 34.878906 " clip-rule="nonzero"/></clipPath><clipPath id="77ba95b415"><path d="M 0.804688 0.378906 L 110.035156 0.378906 L 110.035156 109.921875 L 0.804688 109.921875 Z M 0.804688 0.378906 " clip-rule="nonzero"/></clipPath><clipPath id="23aee99531"><path d="M 110.035156 10.878906 L 110.035156 99.253906 C 110.035156 102.035156 108.929688 104.707031 106.960938 106.675781 C 104.992188 108.644531 102.320312 109.75 99.535156 109.75 L 11.304688 109.75 C 8.519531 109.75 5.847656 108.644531 3.878906 106.675781 C 1.910156 104.707031 0.804688 102.035156 0.804688 99.253906 L 0.804688 10.878906 C 0.804688 8.09375 1.910156 5.425781 3.878906 3.457031 C 5.847656 1.488281 8.519531 0.378906 11.304688 0.378906 L 99.535156 0.378906 C 102.320312 0.378906 104.992188 1.488281 106.960938 3.457031 C 108.929688 5.425781 110.035156 8.09375 110.035156 10.878906 Z M 110.035156 10.878906 " clip-rule="nonzero"/></clipPath><clipPath id="bf4a97faf6"><rect x="0" width="111" y="0" height="110"/></clipPath><clipPath id="ea35a2416f"><path d="M 225.109375 11.59375 L 361.15625 11.59375 L 361.15625 147.640625 L 225.109375 147.640625 Z M 225.109375 11.59375 " clip-rule="nonzero"/></clipPath><clipPath id="4541e8601d"><path d="M 361.15625 34.09375 L 361.15625 125.140625 C 361.15625 137.566406 351.082031 147.640625 338.65625 147.640625 L 247.609375 147.640625 C 235.183594 147.640625 225.109375 137.566406 225.109375 125.140625 L 225.109375 34.09375 C 225.109375 21.667969 235.183594 11.59375 247.609375 11.59375 L 338.65625 11.59375 C 351.082031 11.59375 361.15625 21.667969 361.15625 34.09375 Z M 361.15625 34.09375 " clip-rule="nonzero"/></clipPath><clipPath id="1779095e3d"><path d="M 0.109375 0.59375 L 136.15625 0.59375 L 136.15625 136.640625 L 0.109375 136.640625 Z M 0.109375 0.59375 " clip-rule="nonzero"/></clipPath><clipPath id="150d8b6bed"><path d="M 136.15625 23.09375 L 136.15625 114.140625 C 136.15625 126.566406 126.082031 136.640625 113.65625 136.640625 L 22.609375 136.640625 C 10.183594 136.640625 0.109375 126.566406 0.109375 114.140625 L 0.109375 23.09375 C 0.109375 10.667969 10.183594 0.59375 22.609375 0.59375 L 113.65625 0.59375 C 126.082031 0.59375 136.15625 10.667969 136.15625 23.09375 Z M 136.15625 23.09375 " clip-rule="nonzero"/></clipPath><clipPath id="c0c25f9c76"><rect x="0" width="137" y="0" height="137"/></clipPath><clipPath id="f948223a09"><path d="M 231.394531 17.328125 L 354.871094 17.328125 L 354.871094 140.804688 L 231.394531 140.804688 Z M 231.394531 17.328125 " clip-rule="nonzero"/></clipPath><clipPath id="7f1ab1049c"><path d="M 354.871094 33.824219 L 354.871094 124.304688 C 354.871094 128.683594 353.132812 132.878906 350.039062 135.972656 C 346.945312 139.066406 342.75 140.804688 338.371094 140.804688 L 247.890625 140.804688 C 243.515625 140.804688 239.320312 139.066406 236.226562 135.972656 C 233.132812 132.878906 231.394531 128.683594 231.394531 124.304688 L 231.394531 33.824219 C 231.394531 29.449219 233.132812 25.253906 236.226562 22.160156 C 239.320312 19.066406 243.515625 17.328125 247.890625 17.328125 L 338.371094 17.328125 C 342.75 17.328125 346.945312 19.066406 350.039062 22.160156 C 353.132812 25.253906 354.871094 29.449219 354.871094 33.824219 Z M 354.871094 33.824219 " clip-rule="nonzero"/></clipPath><clipPath id="c0430f3c8c"><path d="M 0.394531 0.328125 L 123.871094 0.328125 L 123.871094 123.804688 L 0.394531 123.804688 Z M 0.394531 0.328125 " clip-rule="nonzero"/></clipPath><clipPath id="7be90849c4"><path d="M 123.871094 16.824219 L 123.871094 107.304688 C 123.871094 111.683594 122.132812 115.878906 119.039062 118.972656 C 115.945312 122.066406 111.75 123.804688 107.371094 123.804688 L 16.890625 123.804688 C 12.515625 123.804688 8.320312 122.066406 5.226562 118.972656 C 2.132812 115.878906 0.394531 111.683594 0.394531 107.304688 L 0.394531 16.824219 C 0.394531 12.449219 2.132812 8.253906 5.226562 5.160156 C 8.320312 2.066406 12.515625 0.328125 16.890625 0.328125 L 107.371094 0.328125 C 111.75 0.328125 115.945312 2.066406 119.039062 5.160156 C 122.132812 8.253906 123.871094 12.449219 123.871094 16.824219 Z M 123.871094 16.824219 " clip-rule="nonzero"/></clipPath><clipPath id="617b2b2974"><rect x="0" width="124" y="0" height="124"/></clipPath><clipPath id="bab126343f"><path d="M 238.515625 24.378906 L 347.75 24.378906 L 347.75 134 L 238.515625 134 Z M 238.515625 24.378906 " clip-rule="nonzero"/></clipPath><clipPath id="cf527e152b"><path d="M 347.75 34.878906 L 347.75 123.253906 C 347.75 126.035156 346.644531 128.707031 344.675781 130.675781 C 342.703125 132.644531 340.035156 133.75 337.25 133.75 L 249.015625 133.75 C 246.230469 133.75 243.5625 132.644531 241.589844 130.675781 C 239.621094 128.707031 238.515625 126.035156 238.515625 123.253906 L 238.515625 34.878906 C 238.515625 32.09375 239.621094 29.425781 241.589844 27.457031 C 243.5625 25.488281 246.230469 24.378906 249.015625 24.378906 L 337.25 24.378906 C 340.035156 24.378906 342.703125 25.488281 344.675781 27.457031 C 346.644531 29.425781 347.75 32.09375 347.75 34.878906 Z M 347.75 34.878906 " clip-rule="nonzero"/></clipPath><clipPath id="4a412c6a0d"><path d="M 0.515625 0.378906 L 109.75 0.378906 L 109.75 109.921875 L 0.515625 109.921875 Z M 0.515625 0.378906 " clip-rule="nonzero"/></clipPath><clipPath id="b67f4a56f1"><path d="M 109.75 10.878906 L 109.75 99.253906 C 109.75 102.035156 108.644531 104.707031 106.675781 106.675781 C 104.703125 108.644531 102.035156 109.75 99.25 109.75 L 11.015625 109.75 C 8.230469 109.75 5.5625 108.644531 3.589844 106.675781 C 1.621094 104.707031 0.515625 102.035156 0.515625 99.253906 L 0.515625 10.878906 C 0.515625 8.09375 1.621094 5.425781 3.589844 3.457031 C 5.5625 1.488281 8.230469 0.378906 11.015625 0.378906 L 99.25 0.378906 C 102.035156 0.378906 104.703125 1.488281 106.675781 3.457031 C 108.644531 5.425781 109.75 8.09375 109.75 10.878906 Z M 109.75 10.878906 " clip-rule="nonzero"/></clipPath><clipPath id="42c9d1aad2"><rect x="0" width="110" y="0" height="110"/></clipPath><clipPath id="c09bc79729"><path d="M 225.109375 225.171875 L 361.15625 225.171875 L 361.15625 361.214844 L 225.109375 361.214844 Z M 225.109375 225.171875 " clip-rule="nonzero"/></clipPath><clipPath id="8c42db3fbb"><path d="M 361.15625 247.667969 L 361.15625 338.71875 C 361.15625 351.144531 351.082031 361.214844 338.65625 361.214844 L 247.609375 361.214844 C 235.183594 361.214844 225.109375 351.144531 225.109375 338.71875 L 225.109375 247.667969 C 225.109375 235.242188 235.183594 225.171875 247.609375 225.171875 L 338.65625 225.171875 C 351.082031 225.171875 361.15625 235.242188 361.15625 247.667969 Z M 361.15625 247.667969 " clip-rule="nonzero"/></clipPath><clipPath id="9f8d163b2f"><path d="M 0.109375 0.171875 L 136.15625 0.171875 L 136.15625 136.214844 L 0.109375 136.214844 Z M 0.109375 0.171875 " clip-rule="nonzero"/></clipPath><clipPath id="2070044a9b"><path d="M 136.15625 22.667969 L 136.15625 113.71875 C 136.15625 126.144531 126.082031 136.214844 113.65625 136.214844 L 22.609375 136.214844 C 10.183594 136.214844 0.109375 126.144531 0.109375 113.71875 L 0.109375 22.667969 C 0.109375 10.242188 10.183594 0.171875 22.609375 0.171875 L 113.65625 0.171875 C 126.082031 0.171875 136.15625 10.242188 136.15625 22.667969 Z M 136.15625 22.667969 " clip-rule="nonzero"/></clipPath><clipPath id="c3943341f1"><rect x="0" width="137" y="0" height="137"/></clipPath><clipPath id="269c5ea77d"><path d="M 14.71875 225.171875 L 150.761719 225.171875 L 150.761719 361.214844 L 14.71875 361.214844 Z M 14.71875 225.171875 " clip-rule="nonzero"/></clipPath><clipPath id="8999113eb0"><path d="M 150.761719 247.667969 L 150.761719 338.71875 C 150.761719 351.144531 140.691406 361.214844 128.265625 361.214844 L 37.21875 361.214844 C 24.792969 361.214844 14.71875 351.144531 14.71875 338.71875 L 14.71875 247.667969 C 14.71875 235.242188 24.792969 225.171875 37.21875 225.171875 L 128.265625 225.171875 C 140.691406 225.171875 150.761719 235.242188 150.761719 247.667969 Z M 150.761719 247.667969 " clip-rule="nonzero"/></clipPath><clipPath id="000368618b"><path d="M 0.71875 0.171875 L 136.761719 0.171875 L 136.761719 136.214844 L 0.71875 136.214844 Z M 0.71875 0.171875 " clip-rule="nonzero"/></clipPath><clipPath id="7972569c4f"><path d="M 136.761719 22.667969 L 136.761719 113.71875 C 136.761719 126.144531 126.691406 136.214844 114.265625 136.214844 L 23.21875 136.214844 C 10.792969 136.214844 0.71875 126.144531 0.71875 113.71875 L 0.71875 22.667969 C 0.71875 10.242188 10.792969 0.171875 23.21875 0.171875 L 114.265625 0.171875 C 126.691406 0.171875 136.761719 10.242188 136.761719 22.667969 Z M 136.761719 22.667969 " clip-rule="nonzero"/></clipPath><clipPath id="165090613a"><rect x="0" width="137" y="0" height="137"/></clipPath><clipPath id="60b880b4ec"><path d="M 231.394531 231.453125 L 354.871094 231.453125 L 354.871094 354.933594 L 231.394531 354.933594 Z M 231.394531 231.453125 " clip-rule="nonzero"/></clipPath><clipPath id="aaaab31c10"><path d="M 354.871094 247.953125 L 354.871094 338.433594 C 354.871094 342.808594 353.132812 347.007812 350.039062 350.101562 C 346.945312 353.195312 342.75 354.933594 338.371094 354.933594 L 247.890625 354.933594 C 243.515625 354.933594 239.320312 353.195312 236.226562 350.101562 C 233.132812 347.007812 231.394531 342.808594 231.394531 338.433594 L 231.394531 247.953125 C 231.394531 243.578125 233.132812 239.382812 236.226562 236.285156 C 239.320312 233.191406 243.515625 231.453125 247.890625 231.453125 L 338.371094 231.453125 C 342.75 231.453125 346.945312 233.191406 350.039062 236.285156 C 353.132812 239.382812 354.871094 243.578125 354.871094 247.953125 Z M 354.871094 247.953125 " clip-rule="nonzero"/></clipPath><clipPath id="667595e6c3"><path d="M 0.394531 0.453125 L 123.871094 0.453125 L 123.871094 123.933594 L 0.394531 123.933594 Z M 0.394531 0.453125 " clip-rule="nonzero"/></clipPath><clipPath id="bf2d79e7a5"><path d="M 123.871094 16.953125 L 123.871094 107.433594 C 123.871094 111.808594 122.132812 116.007812 119.039062 119.101562 C 115.945312 122.195312 111.75 123.933594 107.371094 123.933594 L 16.890625 123.933594 C 12.515625 123.933594 8.320312 122.195312 5.226562 119.101562 C 2.132812 116.007812 0.394531 111.808594 0.394531 107.433594 L 0.394531 16.953125 C 0.394531 12.578125 2.132812 8.382812 5.226562 5.285156 C 8.320312 2.191406 12.515625 0.453125 16.890625 0.453125 L 107.371094 0.453125 C 111.75 0.453125 115.945312 2.191406 119.039062 5.285156 C 122.132812 8.382812 123.871094 12.578125 123.871094 16.953125 Z M 123.871094 16.953125 " clip-rule="nonzero"/></clipPath><clipPath id="2da9013736"><rect x="0" width="124" y="0" height="124"/></clipPath><clipPath id="0dc0837d23"><path d="M 21 231.453125 L 144.480469 231.453125 L 144.480469 354.933594 L 21 354.933594 Z M 21 231.453125 " clip-rule="nonzero"/></clipPath><clipPath id="f2cf6a3deb"><path d="M 144.480469 247.953125 L 144.480469 338.433594 C 144.480469 342.808594 142.742188 347.007812 139.648438 350.101562 C 136.554688 353.195312 132.355469 354.933594 127.980469 354.933594 L 37.5 354.933594 C 33.125 354.933594 28.929688 353.195312 25.835938 350.101562 C 22.738281 347.007812 21 342.808594 21 338.433594 L 21 247.953125 C 21 243.578125 22.738281 239.382812 25.835938 236.285156 C 28.929688 233.191406 33.125 231.453125 37.5 231.453125 L 127.980469 231.453125 C 132.355469 231.453125 136.554688 233.191406 139.648438 236.285156 C 142.742188 239.382812 144.480469 243.578125 144.480469 247.953125 Z M 144.480469 247.953125 " clip-rule="nonzero"/></clipPath><clipPath id="3312e42662"><path d="M 0 0.453125 L 123.480469 0.453125 L 123.480469 123.933594 L 0 123.933594 Z M 0 0.453125 " clip-rule="nonzero"/></clipPath><clipPath id="3723a197ca"><path d="M 123.480469 16.953125 L 123.480469 107.433594 C 123.480469 111.808594 121.742188 116.007812 118.648438 119.101562 C 115.554688 122.195312 111.355469 123.933594 106.980469 123.933594 L 16.5 123.933594 C 12.125 123.933594 7.929688 122.195312 4.835938 119.101562 C 1.738281 116.007812 0 111.808594 0 107.433594 L 0 16.953125 C 0 12.578125 1.738281 8.382812 4.835938 5.285156 C 7.929688 2.191406 12.125 0.453125 16.5 0.453125 L 106.980469 0.453125 C 111.355469 0.453125 115.554688 2.191406 118.648438 5.285156 C 121.742188 8.382812 123.480469 12.578125 123.480469 16.953125 Z M 123.480469 16.953125 " clip-rule="nonzero"/></clipPath><clipPath id="a425ec33d1"><rect x="0" width="124" y="0" height="124"/></clipPath><clipPath id="e80eda4657"><path d="M 238.515625 238.507812 L 347.75 238.507812 L 347.75 348 L 238.515625 348 Z M 238.515625 238.507812 " clip-rule="nonzero"/></clipPath><clipPath id="bfa7e9ab71"><path d="M 347.75 249.007812 L 347.75 337.378906 C 347.75 340.164062 346.644531 342.835938 344.675781 344.804688 C 342.703125 346.773438 340.035156 347.878906 337.25 347.878906 L 249.015625 347.878906 C 246.230469 347.878906 243.5625 346.773438 241.589844 344.804688 C 239.621094 342.835938 238.515625 340.164062 238.515625 337.378906 L 238.515625 249.007812 C 238.515625 246.222656 239.621094 243.550781 241.589844 241.582031 C 243.5625 239.613281 246.230469 238.507812 249.015625 238.507812 L 337.25 238.507812 C 340.035156 238.507812 342.703125 239.613281 344.675781 241.582031 C 346.644531 243.550781 347.75 246.222656 347.75 249.007812 Z M 347.75 249.007812 " clip-rule="nonzero"/></clipPath><clipPath id="ef72b559fc"><path d="M 0.515625 0.507812 L 109.75 0.507812 L 109.75 110 L 0.515625 110 Z M 0.515625 0.507812 " clip-rule="nonzero"/></clipPath><clipPath id="44db80bef8"><path d="M 109.75 11.007812 L 109.75 99.378906 C 109.75 102.164062 108.644531 104.835938 106.675781 106.804688 C 104.703125 108.773438 102.035156 109.878906 99.25 109.878906 L 11.015625 109.878906 C 8.230469 109.878906 5.5625 108.773438 3.589844 106.804688 C 1.621094 104.835938 0.515625 102.164062 0.515625 99.378906 L 0.515625 11.007812 C 0.515625 8.222656 1.621094 5.550781 3.589844 3.582031 C 5.5625 1.613281 8.230469 0.507812 11.015625 0.507812 L 99.25 0.507812 C 102.035156 0.507812 104.703125 1.613281 106.675781 3.582031 C 108.644531 5.550781 109.75 8.222656 109.75 11.007812 Z M 109.75 11.007812 " clip-rule="nonzero"/></clipPath><clipPath id="7dfd015edf"><rect x="0" width="110" y="0" height="110"/></clipPath><clipPath id="8993e1e8b8"><path d="M 28.125 238.507812 L 137.359375 238.507812 L 137.359375 348 L 28.125 348 Z M 28.125 238.507812 " clip-rule="nonzero"/></clipPath><clipPath id="bce0f14a74"><path d="M 137.359375 249.007812 L 137.359375 337.378906 C 137.359375 340.164062 136.25 342.835938 134.28125 344.804688 C 132.3125 346.773438 129.644531 347.878906 126.859375 347.878906 L 38.625 347.878906 C 35.839844 347.878906 33.167969 346.773438 31.199219 344.804688 C 29.230469 342.835938 28.125 340.164062 28.125 337.378906 L 28.125 249.007812 C 28.125 246.222656 29.230469 243.550781 31.199219 241.582031 C 33.167969 239.613281 35.839844 238.507812 38.625 238.507812 L 126.859375 238.507812 C 129.644531 238.507812 132.3125 239.613281 134.28125 241.582031 C 136.25 243.550781 137.359375 246.222656 137.359375 249.007812 Z M 137.359375 249.007812 " clip-rule="nonzero"/></clipPath><clipPath id="755c274db5"><path d="M 0.125 0.507812 L 109.359375 0.507812 L 109.359375 110 L 0.125 110 Z M 0.125 0.507812 " clip-rule="nonzero"/></clipPath><clipPath id="09a1b3344b"><path d="M 109.359375 11.007812 L 109.359375 99.378906 C 109.359375 102.164062 108.25 104.835938 106.28125 106.804688 C 104.3125 108.773438 101.644531 109.878906 98.859375 109.878906 L 10.625 109.878906 C 7.839844 109.878906 5.167969 108.773438 3.199219 106.804688 C 1.230469 104.835938 0.125 102.164062 0.125 99.378906 L 0.125 11.007812 C 0.125 8.222656 1.230469 5.550781 3.199219 3.582031 C 5.167969 1.613281 7.839844 0.507812 10.625 0.507812 L 98.859375 0.507812 C 101.644531 0.507812 104.3125 1.613281 106.28125 3.582031 C 108.25 5.550781 109.359375 8.222656 109.359375 11.007812 Z M 109.359375 11.007812 " clip-rule="nonzero"/></clipPath><clipPath id="2e31eb721d"><rect x="0" width="110" y="0" height="110"/></clipPath></defs><g clip-path="url(#5a2d326ced)"><g clip-path="url(#7dad137879)"><g transform="matrix(1, 0, 0, 1, 73, 73)"><g clip-path="url(#3f3680b2f1)"><g clip-path="url(#46fdb7a6e2)"><g clip-path="url(#6c9a3342d3)"><path fill="#bfbfbf" d="M 0.785156 0.789062 L 228.207031 0.789062 L 228.207031 228.210938 L 0.785156 228.210938 Z M 0.785156 0.789062 " fill-opacity="1" fill-rule="nonzero"/></g></g></g></g></g></g><g clip-path="url(#30c8435a33)"><g clip-path="url(#a1cd8c9e21)"><g transform="matrix(1, 0, 0, 1, 82, 82)"><g clip-path="url(#be33432689)"><g clip-path="url(#f9bd483d8a)"><g clip-path="url(#71b756ff1a)"><path fill="#d9d9d9" d="M 0.742188 0.8125 L 211.125 0.8125 L 211.125 211.195312 L 0.742188 211.195312 Z M 0.742188 0.8125 " fill-opacity="1" fill-rule="nonzero"/></g></g></g></g></g></g><g clip-path="url(#23219a4ce3)"><g clip-path="url(#b5e9d20601)"><g transform="matrix(1, 0, 0, 1, 91, 92)"><g clip-path="url(#1eb7ede678)"><g clip-path="url(#496a45d8c0)"><g clip-path="url(#8d9790aaf1)"><path fill="#ebebeb" d="M 0.667969 0.171875 L 192.324219 0.171875 L 192.324219 191.832031 L 0.667969 191.832031 Z M 0.667969 0.171875 " fill-opacity="1" fill-rule="nonzero"/></g></g></g></g></g></g><g clip-path="url(#10abd458c9)"><g clip-path="url(#76158c2e00)"><g transform="matrix(1, 0, 0, 1, 11, 11)"><g clip-path="url(#e447bc0d26)"><g clip-path="url(#696f4f06ae)"><g clip-path="url(#5cf5872694)"><path fill="#91d163" d="M 0.59375 0.59375 L 136.644531 0.59375 L 136.644531 136.644531 L 0.59375 136.644531 Z M 0.59375 0.59375 " fill-opacity="1" fill-rule="nonzero"/></g></g></g></g></g></g><g clip-path="url(#91a2361643)"><g clip-path="url(#7d380dc503)"><g transform="matrix(1, 0, 0, 1, 17, 17)"><g clip-path="url(#0068beeb20)"><g clip-path="url(#5538b55858)"><g clip-path="url(#190b3d4929)"><path fill="#aae481" d="M 0.679688 0.761719 L 124.160156 0.761719 L 124.160156 124.242188 L 0.679688 124.242188 Z M 0.679688 0.761719 " fill-opacity="1" fill-rule="nonzero"/></g></g></g></g></g></g><g clip-path="url(#2cd5d70ac8)"><g clip-path="url(#f1e11745f7)"><g transform="matrix(1, 0, 0, 1, 24, 24)"><g clip-path="url(#bf4a97faf6)"><g clip-path="url(#77ba95b415)"><g clip-path="url(#23aee99531)"><path fill="#caf1ad" d="M 0.804688 0.378906 L 110.035156 0.378906 L 110.035156 109.613281 L 0.804688 109.613281 Z M 0.804688 0.378906 " fill-opacity="1" fill-rule="nonzero"/></g></g></g></g></g></g><g clip-path="url(#ea35a2416f)"><g clip-path="url(#4541e8601d)"><g transform="matrix(1, 0, 0, 1, 225, 11)"><g clip-path="url(#c0c25f9c76)"><g clip-path="url(#1779095e3d)"><g clip-path="url(#150d8b6bed)"><path fill="#f6cd63" d="M 0.109375 0.59375 L 136.15625 0.59375 L 136.15625 136.640625 L 0.109375 136.640625 Z M 0.109375 0.59375 " fill-opacity="1" fill-rule="nonzero"/></g></g></g></g></g></g><g clip-path="url(#f948223a09)"><g clip-path="url(#7f1ab1049c)"><g transform="matrix(1, 0, 0, 1, 231, 17)"><g clip-path="url(#617b2b2974)"><g clip-path="url(#c0430f3c8c)"><g clip-path="url(#7be90849c4)"><path fill="#fdd97b" d="M 0.394531 0.328125 L 123.871094 0.328125 L 123.871094 123.804688 L 0.394531 123.804688 Z M 0.394531 0.328125 " fill-opacity="1" fill-rule="nonzero"/></g></g></g></g></g></g><g clip-path="url(#bab126343f)"><g clip-path="url(#cf527e152b)"><g transform="matrix(1, 0, 0, 1, 238, 24)"><g clip-path="url(#42c9d1aad2)"><g clip-path="url(#4a412c6a0d)"><g clip-path="url(#b67f4a56f1)"><path fill="#ffe6a4" d="M 0.515625 0.378906 L 109.75 0.378906 L 109.75 109.613281 L 0.515625 109.613281 Z M 0.515625 0.378906 " fill-opacity="1" fill-rule="nonzero"/></g></g></g></g></g></g><g clip-path="url(#c09bc79729)"><g clip-path="url(#8c42db3fbb)"><g transform="matrix(1, 0, 0, 1, 225, 225)"><g clip-path="url(#c3943341f1)"><g clip-path="url(#9f8d163b2f)"><g clip-path="url(#2070044a9b)"><path fill="#d66363" d="M 0.109375 0.171875 L 136.15625 0.171875 L 136.15625 136.214844 L 0.109375 136.214844 Z M 0.109375 0.171875 " fill-opacity="1" fill-rule="nonzero"/></g></g></g></g></g></g><g clip-path="url(#269c5ea77d)"><g clip-path="url(#8999113eb0)"><g transform="matrix(1, 0, 0, 1, 14, 225)"><g clip-path="url(#165090613a)"><g clip-path="url(#000368618b)"><g clip-path="url(#7972569c4f)"><path fill="#25c2d1" d="M 0.71875 0.171875 L 136.761719 0.171875 L 136.761719 136.214844 L 0.71875 136.214844 Z M 0.71875 0.171875 " fill-opacity="1" fill-rule="nonzero"/></g></g></g></g></g></g><g clip-path="url(#60b880b4ec)"><g clip-path="url(#aaaab31c10)"><g transform="matrix(1, 0, 0, 1, 231, 231)"><g clip-path="url(#2da9013736)"><g clip-path="url(#667595e6c3)"><g clip-path="url(#bf2d79e7a5)"><path fill="#e47878" d="M 0.394531 0.453125 L 123.871094 0.453125 L 123.871094 123.933594 L 0.394531 123.933594 Z M 0.394531 0.453125 " fill-opacity="1" fill-rule="nonzero"/></g></g></g></g></g></g><g clip-path="url(#0dc0837d23)"><g clip-path="url(#f2cf6a3deb)"><g transform="matrix(1, 0, 0, 1, 21, 231)"><g clip-path="url(#a425ec33d1)"><g clip-path="url(#3312e42662)"><g clip-path="url(#3723a197ca)"><path fill="#55e1ef" d="M 0 0.453125 L 123.480469 0.453125 L 123.480469 123.933594 L 0 123.933594 Z M 0 0.453125 " fill-opacity="1" fill-rule="nonzero"/></g></g></g></g></g></g><g clip-path="url(#e80eda4657)"><g clip-path="url(#bfa7e9ab71)"><g transform="matrix(1, 0, 0, 1, 238, 238)"><g clip-path="url(#7dfd015edf)"><g clip-path="url(#ef72b559fc)"><g clip-path="url(#44db80bef8)"><path fill="#f18a8a" d="M 0.515625 0.507812 L 109.75 0.507812 L 109.75 109.742188 L 0.515625 109.742188 Z M 0.515625 0.507812 " fill-opacity="1" fill-rule="nonzero"/></g></g></g></g></g></g><g clip-path="url(#8993e1e8b8)"><g clip-path="url(#bce0f14a74)"><g transform="matrix(1, 0, 0, 1, 28, 238)"><g clip-path="url(#2e31eb721d)"><g clip-path="url(#755c274db5)"><g clip-path="url(#09a1b3344b)"><path fill="#91ebf4" d="M 0.125 0.507812 L 109.359375 0.507812 L 109.359375 109.742188 L 0.125 109.742188 Z M 0.125 0.507812 " fill-opacity="1" fill-rule="nonzero"/></g></g></g></g></g></g></svg>